<?xml version="1.0" encoding="utf-8"?>
<!-- Generator: Adobe Illustrator 16.0.0, SVG Export Plug-In . SVG Version: 6.00 Build 0)  -->
<!DOCTYPE svg PUBLIC "-//W3C//DTD SVG 1.1//EN" "http://www.w3.org/Graphics/SVG/1.1/DTD/svg11.dtd">
<svg version="1.1" id="baoquan_x5F_a" xmlns="http://www.w3.org/2000/svg" xmlns:xlink="http://www.w3.org/1999/xlink" x="0px"
	 y="0px" width="34px" height="34px" viewBox="0 0 34 34" enable-background="new 0 0 34 34" xml:space="preserve">
<circle fill="#333333" cx="17.008" cy="17.008" r="17.008"/>
<g>
	<defs>
		<path id="SVGID_1_" d="M30.277,32.736v0.004c0,0.695-0.547,1.26-1.221,1.26H5.43c-0.674,0-1.222-0.564-1.222-1.26v-0.004l0,0
			c0,0,0-4.598,3.252-6.271c2.06-1.056,1.267-0.195,3.795-1.279c2.527-1.08,3.125-1.457,3.125-1.457l0.023-2.492
			c0,0-0.946-0.743-1.239-3.09c-0.594,0.181-0.79-0.715-0.823-1.29c-0.032-0.549-0.344-2.268,0.38-2.113
			c-0.148-1.146-0.254-2.182-0.202-2.73c0.18-1.924,1.975-3.935,4.742-4.082c3.252,0.146,4.542,2.157,4.721,4.081
			c0.057,0.548-0.063,1.584-0.211,2.729c0.726-0.154,0.408,1.562,0.375,2.113c-0.031,0.568-0.23,1.459-0.82,1.286
			c-0.301,2.344-1.243,3.086-1.243,3.086l0.021,2.479c0,0,0.602,0.353,3.125,1.433c2.528,1.082,1.735,0.272,3.795,1.328
			C30.277,28.141,30.277,32.736,30.277,32.736L30.277,32.736L30.277,32.736z"/>
	</defs>
	<clipPath id="SVGID_2_">
		<use xlink:href="#SVGID_1_"  overflow="visible"/>
	</clipPath>
	<circle clip-path="url(#SVGID_2_)" fill="#999999" cx="17.008" cy="17.008" r="17.008"/>
</g>
</svg>
