<?xml version="1.0" encoding="utf-8"?>
<!-- Generator: Adobe Illustrator 16.0.0, SVG Export Plug-In . SVG Version: 6.00 Build 0)  -->
<!DOCTYPE svg PUBLIC "-//W3C//DTD SVG 1.1//EN" "http://www.w3.org/Graphics/SVG/1.1/DTD/svg11.dtd">
<svg version="1.1" id="baoquan_x5F_b" xmlns="http://www.w3.org/2000/svg" xmlns:xlink="http://www.w3.org/1999/xlink" x="0px"
	 y="0px" width="36px" height="36px" viewBox="0 0 36 36" enable-background="new 0 0 36 36" xml:space="preserve">
<g>
	<path fill="#999999" d="M18,0C8.059,0,0,8.059,0,18c0,9.94,8.059,18,18,18c9.94,0,18-8.06,18-18C36,8.059,27.94,0,18,0L18,0z
		 M18,34.561C8.869,34.561,1.44,27.132,1.44,18C1.44,8.869,8.869,1.44,18,1.44c9.131,0,16.56,7.428,16.56,16.56
		S27.131,34.561,18,34.561L18,34.561z M18,34.561"/>
	<path fill="#999999" d="M25.402,22.224l0.925-0.298c0.352-0.114,0.561-0.476,0.483-0.837l-0.494-2.3l1.578-1.746
		c0.247-0.274,0.247-0.691,0-0.966l-1.578-1.745l0.494-2.301c0.077-0.361-0.132-0.723-0.483-0.837l-2.24-0.722l-0.722-2.239
		c-0.113-0.351-0.473-0.564-0.837-0.483l-2.3,0.495l-1.745-1.579c-0.274-0.249-0.692-0.249-0.966,0l-1.746,1.579l-2.3-0.495
		c-0.364-0.082-0.724,0.132-0.837,0.483l-0.723,2.239l-2.239,0.722c-0.352,0.114-0.561,0.476-0.483,0.837l0.495,2.301l-1.579,1.745
		c-0.248,0.274-0.248,0.691,0,0.966l1.579,1.746l-0.495,2.3c-0.078,0.361,0.13,0.723,0.483,0.837l0.925,0.298l-3.187,3.188
		c-0.2,0.199-0.265,0.497-0.165,0.762c0.099,0.265,0.344,0.446,0.626,0.466l3.245,0.217l1.244,1.864
		c0.121,0.183,0.32,0.301,0.539,0.318c0.02,0.002,0.039,0.002,0.06,0.002c0.198,0,0.388-0.081,0.525-0.228l3.046-3.25l0.986,0.892
		c0.137,0.124,0.31,0.186,0.482,0.186s0.346-0.062,0.482-0.186l0.986-0.892l3.046,3.25c0.137,0.146,0.327,0.228,0.525,0.228
		c0.02,0,0.039,0,0.06-0.002c0.219-0.018,0.418-0.136,0.539-0.318l1.243-1.864l3.246-0.217c0.282-0.02,0.527-0.201,0.626-0.466
		c0.1-0.264,0.035-0.563-0.165-0.762L25.402,22.224L25.402,22.224z M13.056,27.166l-0.937-1.405
		c-0.124-0.186-0.328-0.304-0.551-0.319l-2.018-0.134l2.435-2.435l0.649,2.014c0.113,0.352,0.473,0.563,0.836,0.482l1.588-0.341
		L13.056,27.166L13.056,27.166z M18,24.949l-0.766-0.692c-0.037-0.11-0.091-0.216-0.182-0.302c-0.098-0.091-0.215-0.139-0.336-0.165
		l-0.254-0.229c-0.133-0.12-0.306-0.186-0.482-0.186c-0.051,0-0.101,0.005-0.15,0.016l-2.024,0.435l-0.636-1.971
		c-0.041-0.128-0.123-0.231-0.222-0.316c-0.015-0.163-0.075-0.322-0.199-0.447c-0.276-0.277-0.721-0.277-1.003-0.01l-1.012-0.326
		l0.436-2.024c0.049-0.227-0.015-0.462-0.17-0.634L9.611,16.56L11,15.025c0.155-0.172,0.219-0.408,0.17-0.635l-0.436-2.025
		l1.971-0.635c0.221-0.071,0.394-0.244,0.465-0.465l0.636-1.97l2.023,0.435c0.228,0.048,0.463-0.015,0.635-0.17L18,8.171l1.536,1.39
		c0.172,0.155,0.408,0.218,0.635,0.17l2.023-0.435l0.636,1.97c0.071,0.221,0.244,0.394,0.465,0.465l1.971,0.635l-0.435,2.025
		c-0.049,0.227,0.015,0.463,0.17,0.635l1.389,1.535l-1.389,1.537c-0.155,0.172-0.219,0.407-0.17,0.634l0.435,2.024l-1.012,0.326
		c-0.282-0.268-0.727-0.268-1.003,0.01c-0.124,0.125-0.185,0.284-0.199,0.447c-0.099,0.085-0.181,0.188-0.222,0.316l-0.636,1.971
		l-2.023-0.435c-0.228-0.051-0.462,0.015-0.634,0.17l-0.255,0.229c-0.121,0.027-0.237,0.074-0.335,0.165
		c-0.091,0.086-0.145,0.191-0.182,0.302L18,24.949L18,24.949z M24.432,25.441c-0.223,0.016-0.427,0.134-0.551,0.319l-0.937,1.405
		l-2.003-2.138l1.587,0.341c0.364,0.081,0.724-0.131,0.837-0.482l0.649-2.014l2.435,2.435L24.432,25.441L24.432,25.441z
		 M24.432,25.441"/>
	<path fill="#999999" d="M15.84,15.36h4.32c0.397,0,0.72-0.322,0.72-0.72s-0.322-0.72-0.72-0.72h-4.32
		c-0.398,0-0.72,0.322-0.72,0.72S15.441,15.36,15.84,15.36L15.84,15.36z M15.84,15.36"/>
	<path fill="#999999" d="M22.32,18.96c0-0.397-0.322-0.72-0.721-0.72H14.4c-0.398,0-0.721,0.322-0.721,0.72
		c0,0.398,0.322,0.721,0.721,0.721H21.6C21.998,19.681,22.32,19.358,22.32,18.96L22.32,18.96z M22.32,18.96"/>
</g>
</svg>
