<?xml version="1.0" encoding="utf-8"?>
<!-- Generator: Adobe Illustrator 16.0.0, SVG Export Plug-In . SVG Version: 6.00 Build 0)  -->
<!DOCTYPE svg PUBLIC "-//W3C//DTD SVG 1.1//EN" "http://www.w3.org/Graphics/SVG/1.1/DTD/svg11.dtd">
<svg version="1.1" id="图层_1" xmlns="http://www.w3.org/2000/svg" xmlns:xlink="http://www.w3.org/1999/xlink" x="0px" y="0px"
	 width="36px" height="36px" viewBox="0 0 36 36" enable-background="new 0 0 36 36" xml:space="preserve">
<path fill="#272636" d="M385.789,18.93"/>
<g>
	<path fill="#EEEEEE" d="M18.082,25.809c-0.173,0-0.348-0.033-0.514-0.102l-6.249-2.616L2.074,26.96
		c-0.496,0.209-0.818,0.691-0.818,1.229c0,0.535,0.322,1.02,0.818,1.227L17.568,35.9c0.166,0.067,0.341,0.102,0.514,0.102
		c0.174,0,0.346-0.034,0.513-0.102l15.49-6.485c0.496-0.207,0.818-0.691,0.818-1.227c0-0.537-0.322-1.02-0.818-1.229l-9.245-3.869
		l-6.245,2.616C18.428,25.775,18.256,25.809,18.082,25.809z"/>
	<path opacity="0.8" fill="#DDDDDD" d="M34.903,17.995c0-0.537-0.322-1.02-0.818-1.228l-9.228-3.862l-6.263,2.623
		c-0.167,0.068-0.339,0.102-0.513,0.102c-0.173,0-0.348-0.034-0.514-0.102l-6.266-2.623l-9.228,3.862
		c-0.496,0.208-0.818,0.691-0.818,1.228c0,0.535,0.322,1.02,0.818,1.227l9.245,3.869l6.249,2.616
		c0.166,0.068,0.341,0.102,0.514,0.102c0.174,0,0.346-0.033,0.513-0.102l6.245-2.616l9.245-3.869
		C34.581,19.015,34.903,18.53,34.903,17.995z"/>
	<path opacity="0.8" fill="#CCCCCC" d="M18.082,15.629c0.174,0,0.346-0.034,0.513-0.102l6.263-2.623l9.228-3.861
		c0.496-0.208,0.818-0.691,0.818-1.228s-0.322-1.02-0.818-1.227l-15.49-6.485c-0.326-0.138-0.699-0.138-1.027,0L2.074,6.588
		c-0.496,0.208-0.818,0.69-0.818,1.227s0.322,1.021,0.818,1.228l9.228,3.861l6.266,2.623C17.734,15.595,17.909,15.629,18.082,15.629
		z"/>
</g>
</svg>
