<?xml version="1.0" encoding="utf-8"?>
<!-- Generator: Adobe Illustrator 16.0.0, SVG Export Plug-In . SVG Version: 6.00 Build 0)  -->
<!DOCTYPE svg PUBLIC "-//W3C//DTD SVG 1.1//EN" "http://www.w3.org/Graphics/SVG/1.1/DTD/svg11.dtd">
<svg version="1.1" id="baoquan_x5F_b" xmlns="http://www.w3.org/2000/svg" xmlns:xlink="http://www.w3.org/1999/xlink" x="0px"
	 y="0px" width="36px" height="36px" viewBox="0 0 36 36" enable-background="new 0 0 36 36" xml:space="preserve">
<g>
	<path fill="none" d="M18.001,9.164c-4.845,0-8.837,3.993-8.837,8.836c0,4.909,3.992,8.901,8.903,8.901
		c4.91,0,8.835-3.992,8.835-8.901C26.902,13.156,22.91,9.164,18.001,9.164z"/>
	<path fill="#999999" d="M18.001,4.254c0.524,0,0.917-0.393,0.917-0.916V0.917C18.918,0.393,18.525,0,18.001,0
		c-0.523,0-0.916,0.393-0.916,0.917v2.422C17.085,3.862,17.478,4.254,18.001,4.254z"/>
	<path fill="#999999" d="M18.001,7.331c-5.892,0-10.67,4.778-10.67,10.669s4.778,10.669,10.67,10.669
		c5.891,0,10.668-4.778,10.668-10.669S23.893,7.331,18.001,7.331z M18.067,26.901c-4.911,0-8.903-3.992-8.903-8.901
		c0-4.844,3.992-8.836,8.837-8.836c4.909,0,8.901,3.993,8.901,8.836C26.902,22.909,22.977,26.901,18.067,26.901z"/>
	<path fill="#999999" d="M35.086,15.251h-2.422c-0.523,0-0.916,0.393-0.916,0.917c0,0.523,0.393,0.916,0.916,0.916h2.422
		c0.523,0,0.916-0.393,0.916-0.916C36.002,15.644,35.609,15.251,35.086,15.251z"/>
	<path fill="#999999" d="M21.666,30.502h-7.332c-0.523,0-0.916,0.393-0.916,0.916s0.393,0.917,0.916,0.917h7.332
		c0.523,0,0.918-0.394,0.918-0.917S22.189,30.502,21.666,30.502z"/>
	<path fill="#999999" d="M30.504,5.302c-0.262,0-0.459,0.065-0.654,0.262l-1.703,1.702c-0.326,0.327-0.326,0.917,0,1.244
		c0.197,0.196,0.393,0.262,0.654,0.262c0.197,0,0.459-0.065,0.59-0.262l1.768-1.702c0.326-0.327,0.326-0.917,0-1.244
		C30.961,5.367,30.766,5.302,30.504,5.302z"/>
	<path fill="#999999" d="M3.338,15.251H0.916C0.393,15.251,0,15.644,0,16.168c0,0.523,0.393,0.916,0.916,0.916h2.422
		c0.523,0,0.916-0.393,0.916-0.916C4.254,15.644,3.861,15.251,3.338,15.251z"/>
	<path fill="#999999" d="M19.244,34.168h-2.42c-0.524,0-0.918,0.393-0.918,0.916S16.3,36,16.824,36h2.42
		c0.523,0,0.918-0.393,0.918-0.916S19.768,34.168,19.244,34.168z"/>
	<path fill="#999999" d="M8.182,7.92c0-0.262-0.064-0.458-0.262-0.654L6.219,5.563C6.021,5.367,5.826,5.302,5.563,5.302
		c-0.262,0-0.458,0.065-0.654,0.262c-0.327,0.327-0.327,0.917,0,1.244l1.702,1.702c0.195,0.196,0.393,0.262,0.654,0.262
		S7.724,8.706,7.92,8.575C8.117,8.378,8.182,8.182,8.182,7.92z"/>
</g>
</svg>
