<?xml version="1.0" encoding="utf-8"?>
<!-- Generator: Adobe Illustrator 16.0.0, SVG Export Plug-In . SVG Version: 6.00 Build 0)  -->
<!DOCTYPE svg PUBLIC "-//W3C//DTD SVG 1.1//EN" "http://www.w3.org/Graphics/SVG/1.1/DTD/svg11.dtd">
<svg version="1.1" id="baoquan_x5F_b" xmlns="http://www.w3.org/2000/svg" xmlns:xlink="http://www.w3.org/1999/xlink" x="0px"
	 y="0px" width="36px" height="36px" viewBox="0 0 36 36" enable-background="new 0 0 36 36" xml:space="preserve">
<g>
	<path fill="#999999" d="M31.27,25.041v-8.632c0-0.433-0.35-0.783-0.78-0.783H18.763V10.95c2.671-0.372,4.729-2.67,4.729-5.449
		c0-3.041-2.457-5.505-5.491-5.505c-3.033,0-5.491,2.464-5.491,5.505c0,2.766,2.037,5.055,4.689,5.444v4.681H5.473
		c-0.433,0-0.782,0.351-0.782,0.783v8.56C2.039,25.358,0,27.646,0,30.413c0,3.041,2.459,5.503,5.491,5.503
		c3.035,0,5.491-2.462,5.491-5.503c0-2.781-2.056-5.077-4.728-5.449v-7.302c0-0.216,0.175-0.391,0.39-0.391h22.671
		c0.215,0,0.391,0.175,0.391,0.391v7.385c-2.652,0.389-4.688,2.679-4.688,5.444c0,3.042,2.457,5.505,5.492,5.505
		c3.031,0,5.49-2.463,5.49-5.505C36,27.711,33.943,25.413,31.27,25.041L31.27,25.041L31.27,25.041z M14.072,5.5
		c0-2.171,1.762-3.937,3.928-3.937c2.167,0,3.927,1.766,3.927,3.937c0,2.172-1.76,3.938-3.927,3.938
		C15.834,9.437,14.072,7.672,14.072,5.5L14.072,5.5L14.072,5.5z M9.42,30.413c0,2.172-1.762,3.938-3.929,3.938
		c-2.166,0-3.927-1.767-3.927-3.938c0-2.171,1.762-3.937,3.927-3.937C7.658,26.477,9.42,28.242,9.42,30.413L9.42,30.413L9.42,30.413
		z M30.51,34.428c-2.168,0-3.931-1.766-3.931-3.937c0-2.17,1.763-3.936,3.931-3.936c2.163,0,3.927,1.766,3.927,3.936
		C34.437,32.662,32.673,34.428,30.51,34.428L30.51,34.428L30.51,34.428z M30.51,34.428"/>
</g>
</svg>
