<?xml version="1.0" encoding="UTF-8"?><!DOCTYPE svg PUBLIC "-//W3C//DTD SVG 1.1//EN" "http://www.w3.org/Graphics/SVG/1.1/DTD/svg11.dtd"><svg xmlns="http://www.w3.org/2000/svg" xmlns:xlink="http://www.w3.org/1999/xlink"><defs><path id="avatar-a" d="M30.277 32.736v.004c0 .695-.547 1.26-1.22 1.26H5.43c-.674 0-1.222-.564-1.222-1.26v-.004s0-4.598 3.252-6.27c2.06-1.057 1.267-.196 3.795-1.28 2.527-1.08 3.125-1.457 3.125-1.457l.023-2.493s-.946-.743-1.24-3.09c-.593.18-.79-.715-.822-1.29-.03-.55-.343-2.268.38-2.113-.147-1.146-.253-2.182-.2-2.73.18-1.924 1.974-3.935 4.74-4.082 3.253.146 4.543 2.157 4.722 4.08.057.55-.063 1.585-.21 2.73.725-.154.407 1.562.374 2.113-.03.568-.23 1.46-.82 1.286-.3 2.345-1.243 3.087-1.243 3.087l.02 2.48s.603.352 3.126 1.432c2.527 1.08 1.734.27 3.794 1.327 3.253 1.674 3.253 6.27 3.253 6.27z"/></defs><symbol id="action" viewBox="0 0 36 36"><path fill="#333" d="M18 0C8.06 0 0 8.06 0 18s8.06 18 18 18 18-8.06 18-18S27.94 0 18 0zM8.705 20c-1.105 0-2-.896-2-2s.895-2 2-2c1.104 0 2 .896 2 2s-.895 2-2 2zM18 20c-1.104 0-2-.896-2-2s.896-2 2-2 2 .896 2 2-.896 2-2 2zm9.29 0c-1.104 0-2-.896-2-2s.896-2 2-2 2 .896 2 2-.895 2-2 2z"/></symbol><symbol id="arrow-right" viewBox="0 0 36 36"><path fill="#666" d="M14.963 33.058l3.005 3.005L36 18.03 17.968 0l-3.005 3.005L29.99 18.03 14.962 33.06zm0 0"/></symbol><symbol id="avatar" viewBox="0 0 34 34"><circle fill="#333" cx="17.008" cy="17.008" r="17.008"/><clipPath id="avatar-b"><use xlink:href="#avatar-a" overflow="visible"/></clipPath><circle clip-path="url(#avatar-b)" fill="#999" cx="17.008" cy="17.008" r="17.008"/></symbol><symbol id="case" viewBox="0 0 36 36"><g fill="#999"><path d="M18 0C8.06 0 0 8.06 0 18s8.06 18 18 18 18-8.06 18-18S27.94 0 18 0zm0 34.56C8.87 34.56 1.44 27.133 1.44 18 1.44 8.87 8.87 1.44 18 1.44c9.13 0 16.56 7.428 16.56 16.56S27.13 34.56 18 34.56zm0 0"/><path d="M25.402 22.224l.925-.298c.352-.114.56-.476.483-.837l-.494-2.3 1.578-1.747c.247-.274.247-.69 0-.966l-1.578-1.745.494-2.3c.077-.362-.132-.724-.483-.838l-2.24-.722-.722-2.24c-.113-.35-.473-.563-.837-.482l-2.3.495-1.745-1.58c-.274-.248-.692-.248-.966 0l-1.746 1.58-2.3-.495c-.363-.082-.723.132-.836.483l-.723 2.24-2.238.72c-.352.115-.56.477-.483.838l.494 2.302-1.58 1.745c-.247.274-.247.69 0 .966l1.58 1.746-.495 2.3c-.08.36.13.722.482.836l.925.298-3.187 3.188c-.2.2-.265.497-.165.762s.344.446.626.466l3.246.217 1.244 1.864c.12.184.32.302.54.32h.06c.197 0 .387-.08.524-.227l3.046-3.25.986.892c.137.124.31.186.482.186s.346-.06.482-.185l.986-.892 3.046 3.25c.137.146.327.228.525.228h.06c.22-.02.418-.137.54-.32l1.242-1.863 3.245-.217c.282-.02.527-.2.626-.466.1-.264.036-.563-.164-.762l-3.184-3.188zm-12.346 4.942l-.937-1.405c-.125-.185-.33-.303-.552-.318l-2.018-.134 2.435-2.435.65 2.014c.112.352.472.563.835.482l1.588-.342-2.002 2.138zM18 24.95l-.766-.693c-.037-.11-.09-.216-.182-.302-.098-.09-.215-.14-.336-.165l-.254-.23c-.133-.12-.306-.185-.482-.185-.05 0-.1.005-.15.016l-2.024.436-.636-1.97c-.04-.13-.123-.232-.222-.317-.015-.164-.075-.323-.2-.448-.275-.277-.72-.277-1.002-.01l-1.012-.326.436-2.024c.05-.227-.015-.462-.17-.634L9.61 16.56 11 15.025c.155-.172.22-.408.17-.635l-.436-2.025 1.97-.635c.222-.07.395-.244.466-.465l.636-1.97 2.023.435c.227.048.462-.015.634-.17L18 8.17l1.536 1.39c.172.156.408.22.635.17l2.024-.434.636 1.97c.07.22.244.394.465.465l1.97.636-.434 2.025c-.048.228.016.464.17.636l1.39 1.535L25 18.1c-.154.172-.218.407-.17.634l.436 2.024-1.012.326c-.282-.268-.727-.268-1.003.01-.123.125-.184.284-.198.447-.1.084-.18.187-.222.315l-.636 1.97-2.023-.434c-.227-.05-.46.016-.633.17l-.255.23c-.12.027-.237.074-.335.165-.09.086-.145.19-.182.302L18 24.95zm6.432.49c-.223.017-.427.135-.55.32l-.938 1.405-2.003-2.138 1.588.34c.364.082.724-.13.837-.48l.65-2.015 2.434 2.435-2.018.134zm0 0"/><path d="M15.84 15.36h4.32c.397 0 .72-.322.72-.72s-.322-.72-.72-.72h-4.32c-.398 0-.72.322-.72.72s.32.72.72.72zm0 0M22.32 18.96c0-.397-.322-.72-.72-.72h-7.2c-.398 0-.72.322-.72.72 0 .398.32.72.72.72h7.2c.398 0 .72-.322.72-.72zm0 0"/></g></symbol><symbol id="contact" viewBox="0 0 36 36"><path fill="#999" d="M13.948 10.74l-3.825 3.89c1.992 4.423 6.216 9.35 11.117 11.003l3.31-3.297s7.84 1.367 9.6 2.225c1.528.74 2.032 2.384 1.794 4.41-.258 2.177-3.107 6.978-8.248 7.03s-12.708-3.82-18.13-9.533C4.143 20.754-.692 13.512.082 7.363c.773-6.15 6.13-7.25 7.47-7.348 1.356-.1 2.43.298 3.25 1.31 1.05 1.304 3.146 9.414 3.146 9.414zM9.533 2.42C8.89 1.58 7.786 1.438 6.68 1.7 5.7 1.93 2.124 3.418 1.618 7.4c-.562 4.433 2.733 11.93 8.647 17.668 5.914 5.736 11.612 9.086 16.508 9.485 4.898.4 7.286-3.923 7.635-5.22.35-1.3.06-2.612-.643-3.134-.896-.67-8.602-2.05-8.602-2.05l-3.494 3.453C15.92 25.73 10.51 20.483 8.208 14.07l3.817-3.857s-1.85-6.948-2.492-7.792z"/></symbol><symbol id="data" viewBox="0 0 36 36"><path fill="#EEE" d="M18.082 25.81c-.173 0-.348-.034-.514-.103l-6.25-2.616-9.244 3.87c-.496.21-.818.69-.818 1.23 0 .534.322 1.02.818 1.226L17.568 35.9c.166.067.34.102.514.102s.346-.034.513-.102l15.49-6.485c.496-.207.818-.69.818-1.227 0-.537-.322-1.02-.818-1.23L24.84 23.09l-6.245 2.616c-.167.07-.34.103-.513.103z"/><path opacity=".8" fill="#DDD" d="M34.903 17.995c0-.537-.322-1.02-.818-1.228l-9.228-3.862-6.263 2.623c-.167.068-.34.102-.513.102-.172 0-.347-.034-.513-.102L11.3 12.905l-9.227 3.862c-.496.208-.818.69-.818 1.228 0 .535.322 1.02.818 1.227l9.245 3.87 6.25 2.615c.165.068.34.102.513.102.175 0 .347-.034.514-.103l6.245-2.616 9.244-3.868c.497-.207.82-.692.82-1.227z"/><path opacity=".8" fill="#CCC" d="M18.082 15.63c.174 0 .346-.035.513-.103l6.263-2.623 9.228-3.86c.496-.21.818-.692.818-1.23s-.322-1.02-.818-1.226L18.596.103c-.326-.138-.7-.138-1.027 0L2.073 6.588c-.496.208-.818.69-.818 1.227s.322 1.02.818 1.228l9.228 3.86 6.266 2.624c.166.068.34.102.514.102z"/></symbol><symbol id="exit" viewBox="0 0 36 36"><g fill="#D7463C"><path d="M25.125 5.324V6.91c4.917 2.447 8.278 7.344 8.278 12.997 0 8.1-6.89 14.664-15.39 14.664s-15.39-6.564-15.39-14.663c0-5.652 3.36-10.55 8.278-12.998V5.323c-5.77 2.56-9.778 8.118-9.778 14.583C1.122 28.794 8.684 36 18.012 36s16.892-7.206 16.892-16.094c0-6.464-4.008-12.023-9.78-14.582z"/><path d="M18 20.713c.414 0 .75-.336.75-.75V.75c0-.414-.336-.75-.75-.75s-.75.336-.75.75v19.213c0 .414.336.75.75.75z"/></g></symbol><symbol id="kyc" viewBox="0 0 36 36"><g fill="#9B418C"><path d="M23.154 12.074h8v1.5h-8zM23.154 17.42h8v1.5h-8zM23.154 23.004h8v1.5h-8z"/><path d="M18 0C8.06 0 0 8.06 0 18s8.06 18 18 18 18-8.06 18-18S27.94 0 18 0zm0 34.5C8.887 34.5 1.5 27.113 1.5 18S8.887 1.5 18 1.5 34.5 8.887 34.5 18 27.113 34.5 18 34.5z"/><path d="M15.93 19.06c1.28-.906 2.12-2.39 2.12-4.076 0-2.76-2.24-5-5-5-2.762 0-5 2.24-5 5 0 1.686.84 3.17 2.12 4.077.887-.37 1.86-.576 2.88-.576-1.02 0-1.993.206-2.88.577-2.713 1.13-4.62 3.807-4.62 6.925 0 .033.003.065.004.1h1.5c0-.032-.005-.062-.005-.1 0-3.313 2.687-6 6-6 3.314 0 6.005 2.688 6.005 6 0 .033-.005.065-.005.1h1.5c0-.032.005-.062.005-.1 0-3.122-1.91-5.797-4.624-6.924zm-2.88-.576c-1.934 0-3.5-1.567-3.5-3.5s1.566-3.5 3.5-3.5c1.93 0 3.5 1.567 3.5 3.5s-1.568 3.5-3.5 3.5z"/></g></symbol><symbol id="light" viewBox="0 0 36 36"><path fill="none" d="M18 9.164c-4.844 0-8.836 3.993-8.836 8.836 0 4.91 3.992 8.9 8.903 8.9 4.91 0 8.835-3.99 8.835-8.9 0-4.844-3.992-8.836-8.9-8.836z"/><path fill="#999" d="M18 4.254c.525 0 .918-.393.918-.916V.918C18.918.392 18.525 0 18 0c-.522 0-.915.393-.915.917V3.34c0 .522.393.914.916.914zM18 7.33C12.11 7.33 7.33 12.11 7.33 18S12.11 28.67 18 28.67c5.892 0 10.67-4.78 10.67-10.67S23.892 7.33 18 7.33zm.067 19.57c-4.91 0-8.903-3.99-8.903-8.9 0-4.844 3.992-8.836 8.837-8.836 4.91 0 8.902 3.993 8.902 8.836 0 4.91-3.925 8.9-8.835 8.9zM35.086 15.25h-2.422c-.523 0-.916.394-.916.918 0 .523.393.916.916.916h2.422c.523 0 .916-.393.916-.916 0-.524-.393-.917-.916-.917zM21.666 30.502h-7.332c-.523 0-.916.393-.916.916s.393.917.916.917h7.332c.523 0 .918-.394.918-.917s-.395-.916-.918-.916zM30.504 5.302c-.262 0-.46.065-.654.262l-1.703 1.702c-.326.327-.326.917 0 1.244.197.196.393.262.654.262.198 0 .46-.065.59-.262l1.77-1.702c.325-.327.325-.917 0-1.244-.2-.197-.394-.262-.656-.262zM3.338 15.25H.916c-.523 0-.916.394-.916.918 0 .523.393.916.916.916h2.422c.523 0 .916-.393.916-.916 0-.524-.393-.917-.916-.917zM19.244 34.168h-2.42c-.524 0-.918.393-.918.916s.394.916.918.916h2.42c.523 0 .918-.393.918-.916s-.394-.916-.918-.916zM8.182 7.92c0-.262-.064-.458-.262-.654l-1.7-1.703c-.2-.196-.394-.26-.657-.26-.262 0-.458.064-.654.26-.328.328-.328.918 0 1.245l1.7 1.702c.196.196.394.262.655.262s.46-.066.655-.197c.197-.197.262-.393.262-.655z"/></symbol><symbol id="logo" viewBox="0 0 78.29 29"><path fill="none" d="M53.664 7.938c-1.175 1.072-2.468 2.184-3.76 3.162h7.52c-1.294-.978-2.587-2.09-3.76-3.162zM37.91 21.26h-.018l-.087.23-.972 2.213h2.14L38 21.49M54.752 21.26h-.018l-.087.23-.972 2.213h2.14l-.973-2.213M42.152 9.774V7.456c0-.28-.253-.51-.564-.51H39.09c-.297 0-.564.23-.564.51v2.318c0 .28.268.51.564.51h2.497c.312 0 .565-.23.565-.51zM47.918 22.753c0-.485-.138-.87-.412-1.157-.273-.286-.664-.43-1.17-.43-.504 0-.892.144-1.164.43-.27.286-.408.672-.408 1.157v.597c0 .49.137.876.41 1.162s.662.43 1.168.43.896-.143 1.168-.428c.27-.285.408-.673.408-1.164v-.597zM41.988 21.167c-.503 0-.892.143-1.163.43-.272.285-.408.67-.408 1.156v.597c0 .49.137.876.41 1.162.272.286.662.43 1.168.43s.895-.143 1.166-.428c.273-.285.41-.673.41-1.164v-.597c0-.485-.138-.87-.41-1.157-.277-.286-.666-.43-1.172-.43zM2.45 8.105c1.243.623 6.577 3.116 8.005 3.783L2.187 19.85c.356 1.622 2.392 2.744 4.423 3.93l5.472-2.367v-1.338l-1.554-1.8c-.652-1.06.182-1.522 1.044-1.522l2.58.047c.642.01 1.924.135.768 1.787l-1.29 1.488v1.338l5.49 2.364c1.815-1.04 4.1-2.536 4.43-3.938l-8.282-7.95c1.357-.664 6.673-3.142 8-3.786L12.828 2.16 2.448 8.106zM34.925 22.712c.205-.142.308-.352.308-.633 0-.283-.113-.496-.34-.64-.226-.145-.56-.217-1-.217h-1.05v1.708h1.173c.4-.003.704-.076.91-.218zM34.215 23.078H32.84v1.806h1.375c.39 0 .7-.082.925-.247s.338-.395.338-.69c0-.26-.114-.47-.34-.63-.228-.16-.535-.24-.923-.24zM69.116 21.167c-.504 0-.893.143-1.164.43s-.408.67-.408 1.156v.597c0 .49.137.876.41 1.162s.662.43 1.168.43.895-.143 1.167-.428.407-.673.407-1.164v-.597c0-.485-.138-.87-.41-1.157-.276-.286-.665-.43-1.17-.43zM68.266 13.11l1.308 4.02c.52-1.355.995-2.72 1.41-4.087l-1.56-4.77c-.31 1.635-.683 3.243-1.158 4.837z"/><path fill="none" d="M73.453 6.947h-7.877c-.312 0-.565.228-.565.51v.723h1.65l.685 2.117c.178-.71.327-1.407.476-2.117h3.24l.684 2.117c.18-.697.328-1.407.477-2.117h1.636c-.313 1.66-.714 3.31-1.19 4.943l1.354 4.14V7.456c-.003-.28-.256-.51-.567-.51z"/><path fill="#FFF" d="M34.9 18.63V9.52h-.506c.416-1.152.743-2.332 1.01-3.564h-2.288c-.52 2.264-1.308 4.528-2.348 6.792h1.873v5.88h2.26zM38.11 18.63c.416-1.77.684-3.645.832-5.574h.268v5.573h2.26v-5.574h.267c.15 1.93.4 3.805.833 5.573h2.258c-.43-1.77-.728-3.605-.832-5.574h.848v-.764H41.47v-1.246h1.947c.55 0 .995-.402.995-.897V7.08c0-.495-.445-.896-.995-.896h-6.153c-.535 0-.996.402-.996.897v3.07c0 .495.46.896.996.896h1.947v1.246H35.75v.764h.95c-.118 1.97-.43 3.805-.846 5.573h2.258zm.98-8.347c-.297 0-.564-.228-.564-.51V7.457c0-.28.268-.51.564-.51h2.497c.312 0 .564.23.564.51v2.318c0 .28-.252.51-.563.51H39.09zM54.823 15.08h4.71v-.765h-4.71v-2.452h3.97v-.402h1.87c-2.406-1.888-4.457-3.737-6.3-5.52H52.95c-1.828 1.783-3.894 3.63-6.3 5.52h1.87v.403h4.043v2.452h-4.71v.764h4.71v2.69h-5.855v.765h13.97v-.764h-5.854v-2.69zm-4.92-3.98c1.293-.978 2.586-2.09 3.76-3.162 1.175 1.072 2.468 2.184 3.76 3.162h-7.52zM75.28 6.184H63.734c-.535 0-.967.402-.967.884v11.59h2.244V7.455c0-.28.254-.51.565-.51h7.877c.312 0 .564.23.564.51v9.927c0 .27-.253.51-.564.51h-.476v.764h2.304c.55 0 .98-.402.98-.897V7.067c0-.482-.43-.883-.98-.883z"/><path fill="#FFF" d="M73.854 8.18H72.22c-.15.71-.298 1.42-.478 2.117L71.06 8.18h-3.24c-.148.71-.298 1.407-.476 2.117L66.66 8.18h-1.65l1.577 4.85c-.432 1.42-.922 2.826-1.457 4.233h1.695c.207-.536.416-1.07.608-1.607l.52 1.607h3.27c.21-.536.417-1.07.61-1.62l.535 1.62h1.65l-1.354-4.14c.476-1.634.878-3.282 1.19-4.943zm-4.28 8.95l-1.308-4.02c.475-1.594.847-3.202 1.158-4.836l1.56 4.77c-.415 1.365-.89 2.73-1.41 4.085zM34.678 22.983l.003-.017c.232-.052.412-.156.538-.312.126-.156.19-.345.19-.565 0-.34-.134-.593-.4-.76-.265-.17-.638-.254-1.118-.254h-1.22v3.953h1.545c.432 0 .78-.096 1.04-.286.264-.19.395-.458.395-.804 0-.24-.094-.452-.28-.637-.187-.182-.418-.288-.692-.32zm-1.837-1.76h1.05c.442 0 .776.073 1.002.217.227.145.34.357.34.64 0 .28-.104.49-.31.633s-.507.215-.91.22H32.84v-1.71zm2.3 3.414c-.225.165-.534.247-.925.247H32.84v-1.806h1.375c.387 0 .694.08.92.24.23.158.342.368.342.63 0 .294-.112.524-.337.69zM37.796 21.077l-1.734 3.953h.188l.52-1.18h2.267l.52 1.18h.188l-1.737-3.953h-.212zm-.963 2.626l.972-2.213.086-.23h.02l.09.23.972 2.213h-2.14zM41.988 21.02c-.546 0-.974.157-1.283.47s-.464.736-.464 1.27v.59c0 .535.157.958.468 1.27.313.314.74.47 1.287.47.544 0 .97-.156 1.28-.47s.466-.734.466-1.27v-.59c0-.533-.155-.955-.467-1.27-.313-.313-.74-.47-1.285-.47zm1.58 2.33c0 .49-.135.88-.407 1.164-.27.285-.66.428-1.165.428s-.896-.144-1.17-.43c-.27-.286-.408-.673-.408-1.162v-.597c0-.485.136-.87.408-1.157.27-.286.66-.43 1.163-.43.506 0 .896.144 1.17.43.274.286.41.672.41 1.157v.597zM47.964 24.09c.083-.22.126-.467.126-.74v-.592c0-.532-.156-.954-.47-1.268s-.74-.47-1.284-.47c-.546 0-.974.156-1.283.47-.31.313-.464.735-.464 1.268v.592c0 .534.154.957.467 1.27.31.313.74.47 1.285.47.23 0 .437-.03.625-.087.19-.057.36-.14.508-.25l.783.64.125-.095-.784-.652c.158-.153.28-.338.364-.557zm-1.622.85c-.506 0-.895-.143-1.168-.43s-.41-.672-.41-1.16v-.598c0-.485.137-.87.408-1.157.272-.286.66-.43 1.164-.43.506 0 .896.144 1.17.43.274.286.412.672.412 1.157v.597c0 .49-.137.878-.408 1.163-.272.286-.662.428-1.168.428zM52.104 23.703c0 .374-.133.675-.4.9-.267.225-.604.338-1.012.338-.41 0-.75-.112-1.016-.338-.267-.225-.4-.525-.4-.9v-2.625h-.172v2.626c0 .433.147.77.443 1.017.295.245.677.368 1.145.368.465 0 .846-.122 1.14-.367.297-.243.444-.582.444-1.017v-2.626h-.172v2.626zM54.638 21.077l-1.734 3.953h.188l.52-1.18h2.267l.52 1.18h.187l-1.738-3.953h-.212zm-.963 2.626l.972-2.213.087-.23h.02l.09.23.972 2.213h-2.14zM60.504 24.745l-.02.006-2.976-3.673h-.175v3.953h.175v-3.676l.02-.005 2.976 3.68h.172v-3.953h-.172M61.866 24.678h.273v.353h-.274zM63.76 21.604c.275-.292.64-.438 1.093-.438.446 0 .8.097 1.06.29.26.194.39.47.39.826h.147l.007-.017c.01-.4-.136-.708-.432-.923-.297-.216-.687-.323-1.172-.323-.508 0-.915.16-1.222.48-.304.32-.458.738-.458 1.256v.592c0 .52.154.94.46 1.26.306.318.713.478 1.22.478.486 0 .876-.107 1.173-.322.296-.214.44-.524.432-.93l-.007-.017h-.146c0 .375-.13.655-.39.842-.26.186-.614.28-1.06.28-.453 0-.818-.147-1.094-.438-.277-.29-.415-.676-.415-1.155v-.597c0-.472.138-.854.415-1.146zM69.116 21.02c-.547 0-.975.157-1.283.47-.31.314-.465.736-.465 1.27v.59c0 .535.156.958.468 1.27s.74.47 1.286.47c.545 0 .972-.156 1.28-.47.312-.312.467-.734.467-1.27v-.59c0-.533-.157-.955-.47-1.27-.312-.313-.74-.47-1.284-.47zm1.58 2.33c0 .49-.135.88-.407 1.164s-.662.428-1.168.428-.895-.144-1.168-.43-.41-.673-.41-1.162v-.597c0-.485.137-.87.408-1.157s.66-.43 1.164-.43c.506 0 .896.144 1.17.43.273.286.41.672.41 1.157v.597zM74.12 24.797h-.018l-1.932-3.72h-.24v3.953h.172v-3.67l.02-.003 1.922 3.673h.137l1.883-3.594.02.002v3.592h.17v-3.953h-.194M8.74 25.18l-1.706.97 1.712.973c3.8 2.2 3.677 2.586 7.243.522l2.642-1.507-1.685-.956c-4.633 2.578-3.704 2.57-8.206-.002z"/><path fill="#FFF" d="M25.72 7.315v-.003L12.828 0 0 7.314V18.2l1.764-1.563c-.003-.223-.003-.456-.003-.7v-6.49c1.027.666 4.776 3.23 5.022 3.426L.366 19.61c.34 2.065 3.142 4.14 5.732 5.645l6.75-3.054c2.26 1.075 4.55 1.958 6.78 3.052 2.074-1.184 5.378-3.234 5.708-5.698L23.94 18.03v.006l-5-5.164c.245-.194 3.965-2.73 5.02-3.425-.005 2.38.024 4.813 0 7.192l1.76 1.56c.002-.338 0-.712.002-1.01v-4.46l-.002-.002V7.315zM15.27 11.89l8.283 7.95c-.332 1.4-2.616 2.896-4.43 3.937l-5.492-2.364v-1.338l1.292-1.488c1.156-1.652-.126-1.777-.768-1.787l-2.58-.047c-.862 0-1.696.463-1.044 1.52l1.554 1.802v1.338L6.61 23.78c-2.032-1.187-4.067-2.31-4.423-3.93l8.27-7.962c-1.43-.667-6.764-3.16-8.007-3.783L12.828 2.16l10.44 5.943c-1.325.645-6.64 3.123-7.998 3.786z"/></symbol><symbol id="menu" viewBox="0.992 0.992 34.016 34.016"><g fill="#FFF"><path d="M1.022 6.967h33.97v2H1.022zM1.022 17.08h33.97v1.99H1.022zM1.022 27.17h33.97v1.982H1.022z"/></g></symbol><symbol id="person" viewBox="0 0 36 36"><path fill="#0FA05A" d="M18 0C11.925 0 7 4.925 7 11s4.925 11 11 11 11-4.924 11-11c0-6.075-4.925-11-11-11zm0 20.5c-5.238 0-9.5-4.26-9.5-9.5 0-5.238 4.262-9.5 9.5-9.5s9.5 4.262 9.5 9.5-4.262 9.5-9.5 9.5z"/><path fill="#0FA05A" d="M2.58 36C3.362 28.172 9.967 22.06 18 22.06c8.023 0 14.63 6.112 15.41 13.94h1.5C34.12 27.343 26.85 20.56 18 20.56 9.14 20.56 1.87 27.342 1.08 36h1.5z"/></symbol><symbol id="process" viewBox="0 0 36 36"><path fill="#999" d="M31.27 25.04v-8.63c0-.434-.35-.784-.78-.784H18.763V10.95c2.67-.372 4.73-2.67 4.73-5.45 0-3.04-2.458-5.504-5.492-5.504-3.032 0-5.49 2.464-5.49 5.505 0 2.767 2.037 5.056 4.69 5.445v4.68H5.472c-.433 0-.782.352-.782.784v8.56C2.04 25.357 0 27.645 0 30.412c0 3.04 2.46 5.503 5.49 5.503 3.036 0 5.492-2.462 5.492-5.503 0-2.78-2.056-5.077-4.728-5.45v-7.3c0-.217.175-.392.39-.392h22.67c.216 0 .392.176.392.392v7.385c-2.652.39-4.688 2.68-4.688 5.444 0 3.043 2.457 5.506 5.492 5.506 3.03 0 5.49-2.463 5.49-5.505 0-2.78-2.057-5.077-4.73-5.45zM14.072 5.5c0-2.17 1.762-3.937 3.928-3.937 2.167 0 3.927 1.766 3.927 3.937 0 2.172-1.76 3.938-3.927 3.938-2.166 0-3.928-1.766-3.928-3.938zM9.42 30.413c0 2.172-1.762 3.938-3.93 3.938-2.165 0-3.926-1.766-3.926-3.937 0-2.17 1.762-3.937 3.927-3.937 2.168 0 3.93 1.766 3.93 3.937zm21.09 4.015c-2.168 0-3.93-1.766-3.93-3.937 0-2.17 1.762-3.935 3.93-3.935 2.163 0 3.927 1.766 3.927 3.936 0 2.172-1.764 3.938-3.927 3.938zm0 0"/></symbol><symbol id="search" viewBox="0 0 36 36"><path fill="#666" d="M35.183 33.64l-10.68-10.68c2.096-2.44 3.37-5.603 3.37-9.065 0-7.685-6.25-13.936-13.937-13.936C6.252-.04 0 6.21 0 13.894 0 21.58 6.252 27.83 13.937 27.83c3.044 0 5.852-.99 8.147-2.65l10.78 10.78 2.32-2.32zM1.64 13.896C1.64 7.115 7.156 1.6 13.935 1.6c6.78 0 12.3 5.515 12.3 12.295s-5.52 12.297-12.3 12.297c-6.78 0-12.297-5.517-12.297-12.297zm0 0"/></symbol><symbol id="setting" viewBox="0 0 36 36"><circle fill="none" cx="17.999" cy="17.985" r="7.144"/><path fill="none" d="M34.022 15.962c-.342-.052-2.918-.48-3.667-.603-.747-.124-1.23-.838-1.452-1.38-.222-.54-.12-.29-.394-.946-.273-.658-.233-1.44.234-2.117S30.647 8.217 30.8 8c.15-.217.132-.403-.05-.59-.18-.19-1.79-1.792-2.055-2.056-.266-.265-.55-.277-.763-.124-.214.154-3 2.084-3.26 2.265-.262.18-1.133.287-1.564.1-.43-.19-.923-.387-1.353-.567s-1.022-.898-1.104-1.416c-.083-.517-.6-3.474-.645-3.73s-.317-.4-.49-.396c-.173.003-2.75 0-3.018 0-.267 0-.47.298-.507.452-.038.154-.41 2.47-.554 3.36-.144.892-.498 1.43-1.218 1.717s-.44.177-1.163.48c-.724.304-1.485.212-2.123-.24-.636-.452-2.497-1.797-2.768-1.994-.27-.196-.58-.156-.793.038-.21.194-1.743 1.744-2.028 2.03s-.278.49-.038.832c.24.34 1.423 1.984 1.92 2.677s.627 1.458.333 2.16c-.296.7-.17.416-.48 1.18-.31.767-1.07 1.118-1.883 1.256-.812.14-2.952.5-3.155.536-.205.033-.537.16-.537.57v2.862c0 .295.172.535.517.61s2.71.466 3.322.57c.61.106 1.317.37 1.66 1.164.346.794.187.427.536 1.236.35.81.12 1.57-.424 2.313-.544.744-1.54 2.18-1.77 2.507-.233.328-.26.628 0 .886.258.26 1.85 1.853 2.01 2.013.16.16.505.204.794.02.29-.186 2.323-1.67 2.823-2.03.503-.36 1.25-.555 2.217-.167.965.388.708.288 1.18.48.474.192.952.913 1.07 1.753.122.84.436 2.825.555 3.213.12.387.276.516.627.516h2.803c.352 0 .537-.156.593-.48.053-.322.364-2.153.516-3.045.15-.892.443-1.686 1.457-2.086 1.016-.4.272-.11.96-.387.686-.277 1.372-.27 2.105.26 1.073.776 2.485 1.71 2.785 1.918.302.208.534.268.812 0s1.81-1.81 2.05-2.05c.238-.24.208-.517.056-.756-.155-.24-1.867-2.612-2.178-3.048-.312-.436-.333-1.246-.11-1.828.22-.58.284-.757.456-1.165.238-.563.886-1.088 1.675-1.214.788-.126 3.342-.587 3.523-.618.18-.03.39-.243.38-.492-.01-.25 0-2.686 0-2.954 0-.27-.138-.527-.48-.58zM18 26.63c-4.774 0-8.645-3.87-8.645-8.646 0-4.773 3.87-8.644 8.644-8.644s8.643 3.87 8.643 8.644c0 4.775-3.87 8.645-8.644 8.645z"/><path fill="#FFAF00" d="M36 16.597c0-.937-.56-1.65-1.36-1.783l-3.69-.607c-.3-.05-.605-.346-.662-.49s-.383-.953-.51-1.265c-.125-.312-.08-.71.19-1.094.27-.384 1.71-2.396 2.075-2.905.363-.51.37-1.484-.207-2.076-.58-.59-2.05-2.02-2.436-2.396-.385-.375-1.334-.37-1.83-.018L24.494 6.15s-.428.296-.887.113c-.46-.182-1.434-.604-1.434-.604s-.31-.234-.416-.85-.477-2.8-.604-3.547C21.027.517 20.268-.007 19.53 0s-2.484 0-3.188 0c-.705 0-1.384.673-1.49 1.264-.108.59-.497 2.967-.605 3.623s-.49.792-.49.792l-1.283.527c-.444.183-.66.113-1.303-.32-.64-.435-1.92-1.332-2.704-1.88s-1.635-.34-2.113.15-1.547 1.535-2.19 2.164c-.64.63-.54 1.61.026 2.39.565.78 1.387 1.95 1.772 2.498.387.548.467.836.36 1.15s-.286.712-.49 1.19c-.208.477-.417.584-1.197.73-.745.137-2.507.424-3.32.57C.5 14.992 0 15.768 0 16.642v2.773c0 1.044.566 1.598 1.648 1.8s2.688.456 3.208.54c.52.083.758.282.92.666.16.385.22.436.4.97.183.534.277.666-.214 1.358-.49.69-1.47 2.063-1.975 2.768-.503.703-.277 1.622.214 2.138s1.523 1.528 2.102 2.1c.58.573 1.51.7 2.29.152s2.358-1.673 2.818-2c.46-.327.94-.227 1.194-.126.256.1.483.197.944.39.46.192.595.48.704 1.007.11.524.438 2.438.598 3.37.16.933.812 1.435 1.742 1.447.932.013 1.428.005 2.643 0 1.213-.005 1.795-.54 1.95-1.346.153-.806.532-3.13.608-3.592.076-.462.256-.632.586-.792s.614-.278 1.15-.51c.536-.23.812-.028 1.188.245.377.273 2.04 1.448 2.736 1.942.7.495 1.576.443 2.227-.188s1.358-1.33 2.114-2.075c.758-.747.523-1.7.19-2.208-.335-.51-1.91-2.7-2.134-3.013-.225-.314-.19-.8-.076-1.058s.363-.783.504-1.082.412-.48.78-.554c.368-.072 2.69-.472 3.593-.627s1.337-.855 1.343-1.713.005-2.084.007-2.83zm-1.498 2.898c.01.25-.2.46-.38.492-.182.03-2.735.492-3.522.618-.79.126-1.437.65-1.675 1.213-.172.408-.235.585-.457 1.165-.222.582-.2 1.393.11 1.828.312.437 2.023 2.808 2.18 3.048.15.24.182.517-.057.757-.24.24-1.77 1.78-2.05 2.05s-.51.207-.81 0c-.3-.21-1.713-1.143-2.786-1.92-.733-.53-1.42-.536-2.105-.26-.69.277.055-.012-.962.388-1.014.4-1.307 1.194-1.457 2.087-.15.892-.462 2.723-.515 3.046-.056.323-.24.48-.593.48h-2.804c-.352 0-.508-.13-.627-.518-.12-.388-.433-2.372-.553-3.213-.12-.84-.597-1.56-1.07-1.753-.474-.192-.216-.093-1.18-.48-.968-.388-1.714-.194-2.217.166-.5.36-2.534 1.846-2.823 2.03-.29.186-.634.143-.793-.018l-2.012-2.013c-.26-.258-.232-.558 0-.886.232-.327 1.227-1.762 1.77-2.506.545-.743.776-1.502.425-2.313l-.535-1.235c-.344-.794-1.05-1.058-1.66-1.163-.612-.105-2.98-.498-3.323-.572s-.518-.314-.518-.61v-2.86c0-.412.332-.538.536-.572.203-.035 2.344-.397 3.155-.536.813-.14 1.572-.49 1.884-1.255.31-.766.183-.48.48-1.18.294-.703.163-1.47-.334-2.16S5.545 8.5 5.303 8.16c-.24-.342-.247-.545.04-.83S7.158 5.492 7.37 5.297c.213-.194.522-.233.796-.037.27.198 2.132 1.543 2.768 1.995.637.452 1.398.543 2.123.24.724-.303.443-.194 1.163-.48s1.074-.825 1.218-1.717c.144-.89.517-3.206.554-3.36.037-.154.24-.452.507-.452s2.844.003 3.018 0c.172-.003.445.142.49.397s.56 3.212.645 3.73c.082.516.675 1.235 1.104 1.415s.922.378 1.353.566c.432.188 1.303.083 1.564-.1.26-.18 3.046-2.11 3.26-2.264.213-.154.497-.14.763.124.264.265 1.874 1.868 2.054 2.055.184.187.203.374.05.59-.15.216-1.587 2.24-2.053 2.917-.468.677-.508 1.46-.235 2.117.273.658.172.406.394.947.222.543.705 1.257 1.452 1.38.75.123 3.325.55 3.667.602.343.053.48.31.48.58-.003.267-.012 2.704-.003 2.953z"/><path fill="#FFAF00" d="M18 9.34c-4.774 0-8.645 3.87-8.645 8.645 0 4.774 3.87 8.645 8.644 8.645s8.643-3.87 8.643-8.645c0-4.774-3.87-8.644-8.644-8.644zm0 15.79c-3.947 0-7.145-3.2-7.145-7.146S14.053 10.84 18 10.84s7.143 3.198 7.143 7.144-3.2 7.145-7.144 7.145z"/></symbol></svg>