<?xml version="1.0" encoding="utf-8"?>
<!-- Generator: Adobe Illustrator 16.0.0, SVG Export Plug-In . SVG Version: 6.00 Build 0)  -->
<!DOCTYPE svg PUBLIC "-//W3C//DTD SVG 1.1//EN" "http://www.w3.org/Graphics/SVG/1.1/DTD/svg11.dtd">
<svg version="1.1" id="图层_1" xmlns="http://www.w3.org/2000/svg" xmlns:xlink="http://www.w3.org/1999/xlink" x="0px" y="0px"
	 width="36px" height="36px" viewBox="0 0 36 36" enable-background="new 0 0 36 36" xml:space="preserve">
<path fill="#333333" d="M18,0C8.059,0,0,8.059,0,18s8.059,18,18,18c9.941,0,18-8.059,18-18S27.941,0,18,0z M8.705,20
	c-1.105,0-2-0.896-2-2s0.895-2,2-2c1.104,0,2,0.896,2,2S9.81,20,8.705,20z M18,20c-1.104,0-2-0.896-2-2s0.896-2,2-2s2,0.896,2,2
	S19.104,20,18,20z M27.29,20c-1.104,0-2-0.896-2-2s0.896-2,2-2s2,0.896,2,2S28.395,20,27.29,20z"/>
</svg>
