<?xml version="1.0" encoding="utf-8"?>
<!-- Generator: Adobe Illustrator 16.0.0, SVG Export Plug-In . SVG Version: 6.00 Build 0)  -->
<!DOCTYPE svg PUBLIC "-//W3C//DTD SVG 1.1//EN" "http://www.w3.org/Graphics/SVG/1.1/DTD/svg11.dtd">
<svg version="1.1" id="baoquan_x5F_b" xmlns="http://www.w3.org/2000/svg" xmlns:xlink="http://www.w3.org/1999/xlink" x="0px"
	 y="0px" width="36px" height="36px" viewBox="0 0 36 36" enable-background="new 0 0 36 36" xml:space="preserve">
<path fill="#999999" d="M13.948,10.739l-3.825,3.892c1.992,4.422,6.216,9.348,11.117,11.002l3.309-3.297c0,0,7.84,1.367,9.602,2.225
	c1.527,0.74,2.031,2.383,1.793,4.408c-0.258,2.178-3.107,6.979-8.248,7.031s-12.708-3.82-18.13-9.533
	C4.143,20.754-0.692,13.512,0.082,7.363c0.773-6.15,6.131-7.25,7.471-7.348c1.355-0.1,2.43,0.298,3.248,1.311
	C11.852,2.629,13.948,10.739,13.948,10.739L13.948,10.739L13.948,10.739z M9.533,2.421C8.89,1.578,7.786,1.437,6.681,1.698
	C5.7,1.93,2.123,3.417,1.617,7.401C1.055,11.833,4.35,19.33,10.264,25.068c5.914,5.736,11.612,9.086,16.508,9.485
	c4.898,0.4,7.286-3.923,7.635-5.221c0.349-1.3,0.059-2.611-0.643-3.133c-0.896-0.668-8.602-2.048-8.602-2.048l-3.494,3.452
	C15.921,25.73,10.51,20.482,8.207,14.069l3.818-3.856C12.025,10.213,10.176,3.265,9.533,2.421L9.533,2.421L9.533,2.421z"/>
<path fill="#272636" d="M9.605,2.596"/>
</svg>
