<?xml version="1.0" encoding="utf-8"?>
<!-- Generator: Adobe Illustrator 16.0.0, SVG Export Plug-In . SVG Version: 6.00 Build 0)  -->
<!DOCTYPE svg PUBLIC "-//W3C//DTD SVG 1.1//EN" "http://www.w3.org/Graphics/SVG/1.1/DTD/svg11.dtd">
<svg version="1.1" id="baoquan_x5F_b" xmlns="http://www.w3.org/2000/svg" xmlns:xlink="http://www.w3.org/1999/xlink" x="0px"
	 y="0px" width="36px" height="36px" viewBox="0 0 36 36" enable-background="new 0 0 36 36" xml:space="preserve">
<g>
	<path fill="#D7463C" d="M25.125,5.324v1.585c4.917,2.448,8.278,7.345,8.278,12.998c0,8.099-6.89,14.664-15.39,14.664
		c-8.501,0-15.391-6.565-15.391-14.664c0-5.652,3.361-10.55,8.279-12.998V5.324c-5.771,2.56-9.779,8.118-9.779,14.583
		C1.122,28.794,8.684,36,18.013,36s16.891-7.206,16.891-16.094C34.904,13.442,30.896,7.883,25.125,5.324z"/>
	<path fill="#D7463C" d="M18,20.713c0.414,0,0.75-0.336,0.75-0.75V0.75C18.75,0.336,18.414,0,18,0s-0.75,0.336-0.75,0.75v19.213
		C17.25,20.377,17.586,20.713,18,20.713z"/>
</g>
</svg>
