<?xml version="1.0" encoding="utf-8"?>
<!-- Generator: Adobe Illustrator 16.0.0, SVG Export Plug-In . SVG Version: 6.00 Build 0)  -->
<!DOCTYPE svg PUBLIC "-//W3C//DTD SVG 1.1//EN" "http://www.w3.org/Graphics/SVG/1.1/DTD/svg11.dtd">
<svg version="1.1" id="baoquan_x5F_c" xmlns="http://www.w3.org/2000/svg" xmlns:xlink="http://www.w3.org/1999/xlink" x="0px"
	 y="0px" width="36px" height="36px" viewBox="0 0 36 36" enable-background="new 0 0 36 36" xml:space="preserve">
<g>
	<rect x="23.154" y="12.074" fill="#9B418C" width="8" height="1.5"/>
	<rect x="23.154" y="17.419" fill="#9B418C" width="8" height="1.5"/>
	<rect x="23.154" y="23.004" fill="#9B418C" width="8" height="1.5"/>
	<path fill="#9B418C" d="M18,0C8.059,0,0,8.059,0,18c0,9.941,8.059,18,18,18c9.941,0,18-8.059,18-18C36,8.059,27.941,0,18,0z
		 M18,34.5C8.887,34.5,1.5,27.113,1.5,18C1.5,8.887,8.887,1.5,18,1.5c9.113,0,16.5,7.387,16.5,16.5C34.5,27.113,27.113,34.5,18,34.5
		z"/>
	<path fill="#9B418C" d="M15.931,19.061c1.278-0.907,2.119-2.391,2.119-4.077c0-2.761-2.24-5-5-5c-2.762,0-5.001,2.239-5.001,5
		c0,1.686,0.841,3.17,2.12,4.077c0.888-0.371,1.86-0.577,2.882-0.577c-1.021,0-1.994,0.206-2.882,0.577
		c-2.712,1.129-4.62,3.806-4.62,6.924c0,0.033,0.004,0.065,0.005,0.101h1.5c0-0.033-0.005-0.063-0.005-0.101
		c0-3.313,2.688-6,6.002-6c3.313,0,6.004,2.688,6.004,6c0,0.033-0.005,0.065-0.005,0.101h1.5c0-0.033,0.005-0.063,0.005-0.101
		C20.555,22.863,18.645,20.188,15.931,19.061z M13.049,18.484c-1.933,0-3.5-1.567-3.5-3.5s1.567-3.5,3.5-3.5
		c1.932,0,3.5,1.567,3.5,3.5S14.982,18.484,13.049,18.484z"/>
</g>
</svg>
