<?xml version="1.0" encoding="utf-8"?>
<!-- Generator: Adobe Illustrator 16.0.0, SVG Export Plug-In . SVG Version: 6.00 Build 0)  -->
<!DOCTYPE svg PUBLIC "-//W3C//DTD SVG 1.1//EN" "http://www.w3.org/Graphics/SVG/1.1/DTD/svg11.dtd">
<svg version="1.1" id="图层_1" xmlns="http://www.w3.org/2000/svg" xmlns:xlink="http://www.w3.org/1999/xlink" x="0px" y="0px"
	 width="78.29px" height="29px" viewBox="0 0 78.29 29" enable-background="new 0 0 78.29 29" xml:space="preserve">
<g>
	<path fill="none" d="M53.664,7.938c-1.175,1.072-2.468,2.184-3.761,3.162h7.521C56.13,10.122,54.837,9.01,53.664,7.938z"/>
	<polygon fill="none" points="37.911,21.26 37.892,21.26 37.805,21.49 36.833,23.703 38.972,23.703 38,21.49 	"/>
	<polygon fill="none" points="54.752,21.26 54.734,21.26 54.647,21.49 53.675,23.703 55.815,23.703 54.842,21.49 	"/>
	<path fill="none" d="M42.152,9.774V7.456c0-0.281-0.253-0.509-0.564-0.509H39.09c-0.297,0-0.564,0.228-0.564,0.509v2.318
		c0,0.281,0.268,0.509,0.564,0.509h2.497C41.899,10.283,42.152,10.055,42.152,9.774z"/>
	<path fill="none" d="M47.918,22.753c0-0.485-0.138-0.871-0.412-1.157c-0.273-0.286-0.664-0.429-1.17-0.429
		c-0.504,0-0.892,0.143-1.164,0.429c-0.271,0.286-0.408,0.672-0.408,1.157v0.597c0,0.489,0.137,0.876,0.41,1.162
		s0.662,0.43,1.168,0.43s0.896-0.143,1.168-0.428c0.271-0.285,0.408-0.673,0.408-1.164V22.753z"/>
	<path fill="none" d="M41.988,21.167c-0.503,0-0.892,0.143-1.163,0.429c-0.272,0.286-0.408,0.672-0.408,1.157v0.597
		c0,0.489,0.137,0.876,0.409,1.162c0.273,0.286,0.663,0.43,1.169,0.43s0.895-0.143,1.166-0.428c0.272-0.285,0.408-0.673,0.408-1.164
		v-0.597c0-0.485-0.137-0.871-0.41-1.157C42.883,21.31,42.494,21.167,41.988,21.167z"/>
	<path fill="none" d="M2.449,8.105c1.244,0.623,6.578,3.116,8.006,3.783L2.187,19.85c0.356,1.622,2.392,2.744,4.423,3.93
		l5.472-2.367l0-1.338l-1.554-1.801c-0.652-1.059,0.182-1.521,1.044-1.521l2.58,0.047c0.642,0.01,1.924,0.135,0.768,1.787
		l-1.291,1.488l0,1.338l5.491,2.364c1.815-1.04,4.099-2.536,4.431-3.938l-8.283-7.95c1.357-0.663,6.673-3.141,8-3.785L12.828,2.161
		L2.449,8.105z"/>
	<path fill="none" d="M34.925,22.712c0.205-0.142,0.308-0.352,0.308-0.633c0-0.282-0.113-0.495-0.339-0.64
		c-0.227-0.144-0.561-0.216-1.002-0.216h-1.049v1.708h1.173C34.417,22.927,34.72,22.854,34.925,22.712z"/>
	<path fill="none" d="M34.215,23.078h-1.374v1.806h1.374c0.391,0,0.7-0.082,0.925-0.247s0.338-0.395,0.338-0.689
		c0-0.261-0.114-0.471-0.341-0.63C34.91,23.158,34.603,23.078,34.215,23.078z"/>
	<path fill="none" d="M69.116,21.167c-0.504,0-0.893,0.143-1.164,0.429s-0.408,0.672-0.408,1.157v0.597
		c0,0.489,0.137,0.876,0.41,1.162s0.662,0.43,1.168,0.43s0.895-0.143,1.167-0.428s0.408-0.673,0.408-1.164v-0.597
		c0-0.485-0.138-0.871-0.411-1.157C70.011,21.31,69.622,21.167,69.116,21.167z"/>
	<path fill="none" d="M68.266,13.11l1.308,4.019c0.521-1.354,0.995-2.72,1.411-4.086l-1.561-4.77
		C69.113,9.908,68.741,11.516,68.266,13.11z"/>
	<path fill="none" d="M73.453,6.947h-7.877c-0.312,0-0.565,0.228-0.565,0.509V8.18h1.65l0.684,2.117
		c0.178-0.71,0.327-1.407,0.476-2.117h3.239l0.684,2.117c0.18-0.697,0.328-1.407,0.477-2.117h1.635
		c-0.313,1.661-0.714,3.309-1.189,4.943l1.353,4.14V7.456C74.017,7.175,73.764,6.947,73.453,6.947z"/>
	<path fill="#FFFFFF" d="M34.899,18.629V9.52h-0.505c0.416-1.152,0.743-2.332,1.011-3.564h-2.289
		c-0.52,2.264-1.308,4.528-2.348,6.792h1.873v5.881H34.899z"/>
	<path fill="#FFFFFF" d="M38.11,18.629c0.416-1.768,0.684-3.644,0.832-5.573h0.268v5.573h2.259v-5.573h0.268
		c0.149,1.929,0.401,3.805,0.833,5.573h2.258c-0.43-1.768-0.728-3.604-0.832-5.573h0.848v-0.764h-3.374v-1.246h1.947
		c0.55,0,0.995-0.402,0.995-0.897V7.081c0-0.496-0.445-0.897-0.995-0.897h-6.153c-0.535,0-0.996,0.402-0.996,0.897v3.068
		c0,0.496,0.461,0.897,0.996,0.897h1.947v1.246h-3.463v0.764h0.951c-0.119,1.969-0.431,3.805-0.847,5.573H38.11z M39.09,10.283
		c-0.297,0-0.564-0.228-0.564-0.509V7.456c0-0.281,0.268-0.509,0.564-0.509h2.497c0.312,0,0.564,0.228,0.564,0.509v2.318
		c0,0.281-0.253,0.509-0.564,0.509H39.09z"/>
	<path fill="#FFFFFF" d="M54.823,15.079h4.711v-0.764h-4.711v-2.452h3.969v-0.402h1.872c-2.407-1.889-4.458-3.738-6.302-5.52H52.95
		c-1.828,1.782-3.894,3.63-6.301,5.52h1.872v0.402h4.042v2.452h-4.711v0.764h4.711v2.692h-5.855v0.764h13.971v-0.764h-5.855V15.079z
		 M49.903,11.1c1.293-0.978,2.586-2.09,3.761-3.162c1.174,1.072,2.467,2.184,3.76,3.162H49.903z"/>
	<path fill="#FFFFFF" d="M75.281,6.184H63.733c-0.535,0-0.967,0.402-0.967,0.884v11.589h2.244V8.18V7.456
		c0-0.281,0.254-0.509,0.565-0.509h7.877c0.312,0,0.564,0.228,0.564,0.509v9.807v0.12c0,0.269-0.253,0.51-0.564,0.51h-0.476v0.764
		h2.304c0.55,0,0.98-0.402,0.98-0.897V7.067C76.261,6.585,75.831,6.184,75.281,6.184z"/>
	<path fill="#FFFFFF" d="M73.854,8.18h-1.635c-0.148,0.71-0.297,1.42-0.477,2.117L71.059,8.18H67.82
		c-0.148,0.71-0.298,1.407-0.476,2.117L66.661,8.18h-1.65l1.576,4.85c-0.432,1.42-0.922,2.826-1.457,4.233h1.695
		c0.207-0.536,0.416-1.071,0.608-1.607l0.521,1.607h3.27c0.208-0.536,0.416-1.071,0.609-1.621l0.535,1.621h1.649l-1.353-4.14
		C73.14,11.489,73.542,9.841,73.854,8.18z M69.574,17.129l-1.308-4.019c0.475-1.594,0.847-3.202,1.158-4.836l1.561,4.77
		C70.569,14.409,70.094,15.775,69.574,17.129z"/>
	<path fill="#FFFFFF" d="M34.678,22.983l0.003-0.017c0.231-0.052,0.411-0.156,0.537-0.312c0.126-0.156,0.189-0.345,0.189-0.565
		c0-0.338-0.133-0.592-0.398-0.76c-0.266-0.169-0.639-0.253-1.119-0.253h-1.221v3.953h1.546c0.432,0,0.779-0.095,1.041-0.285
		c0.263-0.189,0.394-0.458,0.394-0.804c0-0.24-0.094-0.452-0.281-0.637C35.183,23.121,34.952,23.015,34.678,22.983z M32.841,21.224
		h1.049c0.442,0,0.776,0.072,1.002,0.216c0.227,0.145,0.339,0.357,0.339,0.64c0,0.281-0.103,0.491-0.308,0.633
		s-0.508,0.215-0.91,0.22h-1.173V21.224z M35.14,24.637c-0.225,0.165-0.534,0.247-0.925,0.247h-1.374v-1.806h1.374
		c0.387,0,0.694,0.08,0.921,0.239c0.228,0.159,0.341,0.369,0.341,0.63C35.478,24.242,35.365,24.472,35.14,24.637z"/>
	<path fill="#FFFFFF" d="M37.796,21.077l-1.734,3.953h0.188l0.52-1.181h2.267l0.52,1.181h0.188l-1.737-3.953H37.796z M36.833,23.703
		l0.972-2.213l0.086-0.23h0.019L38,21.49l0.972,2.213H36.833z"/>
	<path fill="#FFFFFF" d="M41.988,21.021c-0.546,0-0.974,0.156-1.283,0.47s-0.464,0.735-0.464,1.268v0.592
		c0,0.534,0.156,0.957,0.467,1.27c0.313,0.313,0.74,0.469,1.287,0.469c0.544,0,0.971-0.156,1.281-0.469s0.465-0.735,0.465-1.27
		v-0.592c0-0.532-0.156-0.954-0.468-1.268C42.96,21.177,42.532,21.021,41.988,21.021z M43.569,23.35
		c0,0.491-0.136,0.879-0.408,1.164c-0.271,0.285-0.66,0.428-1.166,0.428s-0.896-0.144-1.169-0.43
		c-0.272-0.286-0.409-0.673-0.409-1.162v-0.597c0-0.485,0.136-0.871,0.408-1.157c0.271-0.286,0.66-0.429,1.163-0.429
		c0.506,0,0.896,0.143,1.171,0.429c0.273,0.286,0.41,0.672,0.41,1.157V23.35z"/>
	<path fill="#FFFFFF" d="M47.964,24.089c0.083-0.22,0.126-0.466,0.126-0.739v-0.592c0-0.532-0.156-0.954-0.469-1.268
		s-0.74-0.47-1.285-0.47c-0.546,0-0.974,0.156-1.283,0.47c-0.309,0.313-0.464,0.735-0.464,1.268v0.592
		c0,0.534,0.155,0.957,0.468,1.27c0.311,0.313,0.74,0.469,1.285,0.469c0.229,0,0.437-0.029,0.625-0.086
		c0.189-0.057,0.359-0.141,0.508-0.251l0.783,0.641l0.125-0.095l-0.784-0.652C47.758,24.493,47.88,24.308,47.964,24.089z
		 M46.342,24.941c-0.506,0-0.895-0.144-1.168-0.43s-0.41-0.673-0.41-1.162v-0.597c0-0.485,0.137-0.871,0.408-1.157
		c0.272-0.286,0.66-0.429,1.164-0.429c0.506,0,0.896,0.143,1.17,0.429c0.274,0.286,0.412,0.672,0.412,1.157v0.597
		c0,0.491-0.137,0.879-0.408,1.164C47.238,24.799,46.848,24.941,46.342,24.941z"/>
	<path fill="#FFFFFF" d="M52.104,23.703c0,0.374-0.133,0.675-0.4,0.899c-0.267,0.226-0.604,0.339-1.012,0.339
		c-0.41,0-0.749-0.113-1.016-0.339c-0.267-0.225-0.4-0.525-0.4-0.899v-2.626h-0.172v2.626c0,0.433,0.147,0.771,0.443,1.017
		c0.295,0.245,0.677,0.368,1.145,0.368c0.465,0,0.846-0.122,1.141-0.367c0.296-0.244,0.443-0.583,0.443-1.018v-2.626h-0.172V23.703z
		"/>
	<path fill="#FFFFFF" d="M54.638,21.077l-1.734,3.953h0.188l0.52-1.181h2.267l0.52,1.181h0.188l-1.738-3.953H54.638z M53.675,23.703
		l0.972-2.213l0.087-0.23h0.019l0.09,0.23l0.973,2.213H53.675z"/>
	<polygon fill="#FFFFFF" points="60.504,24.745 60.485,24.751 57.508,21.077 57.333,21.077 57.333,25.03 57.508,25.03 
		57.508,21.354 57.527,21.349 60.504,25.03 60.676,25.03 60.676,21.077 60.504,21.077 	"/>
	<rect x="61.866" y="24.678" fill="#FFFFFF" width="0.273" height="0.353"/>
	<path fill="#FFFFFF" d="M63.76,21.604c0.275-0.292,0.641-0.438,1.093-0.438c0.446,0,0.8,0.097,1.06,0.291
		c0.261,0.193,0.391,0.469,0.391,0.825h0.146l0.007-0.017c0.009-0.4-0.136-0.708-0.432-0.923c-0.297-0.216-0.687-0.323-1.172-0.323
		c-0.508,0-0.915,0.16-1.222,0.48c-0.305,0.32-0.459,0.739-0.459,1.257v0.592c0,0.52,0.154,0.939,0.459,1.259
		c0.307,0.319,0.714,0.479,1.222,0.479c0.485,0,0.875-0.107,1.172-0.322c0.296-0.214,0.44-0.524,0.432-0.93l-0.007-0.017h-0.146
		c0,0.375-0.13,0.655-0.391,0.842c-0.26,0.187-0.613,0.28-1.06,0.28c-0.452,0-0.817-0.146-1.093-0.437
		c-0.277-0.29-0.415-0.676-0.415-1.155v-0.597C63.345,22.278,63.483,21.896,63.76,21.604z"/>
	<path fill="#FFFFFF" d="M69.116,21.021c-0.547,0-0.975,0.156-1.283,0.47c-0.31,0.313-0.465,0.735-0.465,1.268v0.592
		c0,0.534,0.156,0.957,0.468,1.27s0.74,0.469,1.286,0.469c0.545,0,0.972-0.156,1.281-0.469c0.311-0.313,0.466-0.735,0.466-1.27
		v-0.592c0-0.532-0.156-0.954-0.468-1.268C70.088,21.177,69.66,21.021,69.116,21.021z M70.697,23.35
		c0,0.491-0.136,0.879-0.408,1.164s-0.661,0.428-1.167,0.428s-0.895-0.144-1.168-0.43s-0.41-0.673-0.41-1.162v-0.597
		c0-0.485,0.137-0.871,0.408-1.157s0.66-0.429,1.164-0.429c0.506,0,0.896,0.143,1.17,0.429c0.273,0.286,0.411,0.672,0.411,1.157
		V23.35z"/>
	<polygon fill="#FFFFFF" points="74.121,24.797 74.102,24.797 72.17,21.077 71.93,21.077 71.93,25.03 72.102,25.03 72.102,21.359 
		72.122,21.357 74.044,25.03 74.181,25.03 76.063,21.436 76.082,21.438 76.082,25.03 76.253,25.03 76.253,21.077 76.059,21.077 	"/>
	<path fill="#FFFFFF" d="M8.741,25.18l-1.707,0.969l1.712,0.974c3.801,2.199,3.677,2.586,7.243,0.522l2.643-1.507l-1.685-0.956
		C12.314,27.76,13.243,27.752,8.741,25.18z"/>
	<path fill="#FFFFFF" d="M25.72,7.315c0-0.001,0-0.002,0-0.003L12.828-0.001L0,7.315c0,0,0,0,0,0v10.53
		c0,0.117,0.001,0.234,0.001,0.354l1.763-1.562c-0.003-0.223-0.003-0.456-0.003-0.699V9.446c1.026,0.667,4.775,3.232,5.021,3.427
		l-6.416,6.736c0.341,2.066,3.142,4.142,5.732,5.646l6.75-3.054c2.26,1.074,4.549,1.957,6.779,3.051
		c2.075-1.184,5.379-3.234,5.709-5.698l-1.396-1.524v0.006l-5-5.164c0.245-0.194,3.965-2.731,5.021-3.425
		c-0.006,2.379,0.023,4.813,0,7.192L25.72,18.2c0.002-0.338,0-0.712,0.002-1.009V12.73c0-0.001-0.001-0.001-0.002-0.002V7.315z
		 M15.27,11.889l8.283,7.95c-0.332,1.401-2.616,2.897-4.431,3.938l-5.491-2.364l0-1.338l1.291-1.488
		c1.156-1.652-0.126-1.777-0.768-1.787l-2.58-0.047c-0.862,0-1.696,0.463-1.044,1.521l1.554,1.801l0,1.338L6.61,23.779
		c-2.032-1.186-4.067-2.308-4.423-3.93l8.269-7.961c-1.428-0.667-6.763-3.16-8.006-3.783l10.378-5.945l10.441,5.943
		C21.943,8.748,16.627,11.226,15.27,11.889z"/>
</g>
</svg>
