<?xml version="1.0" encoding="utf-8"?>
<!-- Generator: Adobe Illustrator 16.0.0, SVG Export Plug-In . SVG Version: 6.00 Build 0)  -->
<!DOCTYPE svg PUBLIC "-//W3C//DTD SVG 1.1//EN" "http://www.w3.org/Graphics/SVG/1.1/DTD/svg11.dtd">
<svg version="1.1" id="baoquan_x5F_b" xmlns="http://www.w3.org/2000/svg" xmlns:xlink="http://www.w3.org/1999/xlink" x="0px"
	 y="0px" width="36px" height="36px" viewBox="0 0 36 36" enable-background="new 0 0 36 36" xml:space="preserve">
<path fill="#0FA05A" d="M18,0C11.925,0,7,4.925,7,11s4.925,11,11,11s11-4.924,11-11C29,4.925,24.075,0,18,0z M18,20.5
	c-5.238,0-9.5-4.261-9.5-9.5c0-5.238,4.262-9.5,9.5-9.5c5.238,0,9.5,4.262,9.5,9.5S23.238,20.5,18,20.5z"/>
<path fill="#0FA05A" d="M2.58,36c0.782-7.828,7.387-13.941,15.421-13.941c8.022,0,14.628,6.113,15.409,13.941h1.499
	c-0.787-8.657-8.058-15.441-16.908-15.441C9.138,20.559,1.868,27.343,1.08,36H2.58z"/>
</svg>
