<?xml version="1.0" encoding="utf-8"?>
<!-- Generator: Adobe Illustrator 16.0.0, SVG Export Plug-In . SVG Version: 6.00 Build 0)  -->
<!DOCTYPE svg PUBLIC "-//W3C//DTD SVG 1.1//EN" "http://www.w3.org/Graphics/SVG/1.1/DTD/svg11.dtd">
<svg version="1.1" id="图层_1" xmlns="http://www.w3.org/2000/svg" xmlns:xlink="http://www.w3.org/1999/xlink" x="0px" y="0px"
	 width="36px" height="36px" viewBox="0 0 36 36" enable-background="new 0 0 36 36" xml:space="preserve">
<g>
	<path fill="#666666" d="M35.183,33.641l-10.681-10.68c2.097-2.44,3.372-5.604,3.372-9.066c0-7.685-6.252-13.936-13.938-13.936
		C6.252-0.041,0,6.21,0,13.895c0,7.684,6.252,13.936,13.937,13.936c3.044,0,5.852-0.99,8.147-2.651l10.78,10.779L35.183,33.641
		L35.183,33.641z M1.639,13.895c0-6.781,5.518-12.296,12.297-12.296c6.78,0,12.299,5.516,12.299,12.296
		c0,6.78-5.519,12.297-12.299,12.297C7.157,26.192,1.639,20.675,1.639,13.895L1.639,13.895z M1.639,13.895"/>
</g>
</svg>
