<?xml version="1.0" encoding="utf-8"?>
<!-- Generator: Adobe Illustrator 16.0.0, SVG Export Plug-In . SVG Version: 6.00 Build 0)  -->
<!DOCTYPE svg PUBLIC "-//W3C//DTD SVG 1.1//EN" "http://www.w3.org/Graphics/SVG/1.1/DTD/svg11.dtd">
<svg version="1.1" id="baoquan_x5F_b" xmlns="http://www.w3.org/2000/svg" xmlns:xlink="http://www.w3.org/1999/xlink" x="0px"
	 y="0px" width="36px" height="36px" viewBox="0 0 36 36" enable-background="new 0 0 36 36" xml:space="preserve">
<g>
	<circle fill="none" cx="17.999" cy="17.985" r="7.144"/>
	<path fill="none" d="M34.022,15.962c-0.342-0.052-2.918-0.479-3.667-0.603c-0.747-0.123-1.23-0.837-1.452-1.378
		c-0.222-0.541-0.12-0.29-0.394-0.947c-0.272-0.658-0.232-1.44,0.235-2.117C29.211,10.24,30.647,8.216,30.799,8
		c0.152-0.217,0.133-0.403-0.05-0.591c-0.18-0.188-1.79-1.791-2.054-2.055c-0.266-0.265-0.55-0.277-0.763-0.124
		c-0.214,0.154-3,2.084-3.26,2.265c-0.262,0.181-1.133,0.287-1.564,0.099c-0.431-0.188-0.923-0.386-1.353-0.566
		s-1.022-0.898-1.104-1.416c-0.084-0.517-0.602-3.474-0.646-3.729s-0.317-0.4-0.489-0.397c-0.174,0.003-2.751,0-3.019,0
		c-0.267,0-0.47,0.298-0.507,0.452c-0.038,0.154-0.41,2.469-0.554,3.36c-0.144,0.892-0.498,1.431-1.218,1.717
		s-0.439,0.177-1.163,0.48c-0.724,0.304-1.485,0.212-2.123-0.24c-0.636-0.452-2.497-1.797-2.768-1.994
		C7.893,5.064,7.583,5.104,7.371,5.298C7.159,5.492,5.627,7.042,5.342,7.329S5.064,7.818,5.304,8.16
		c0.241,0.341,1.423,1.984,1.92,2.677s0.627,1.458,0.333,2.16c-0.296,0.701-0.169,0.416-0.479,1.181
		c-0.312,0.766-1.071,1.117-1.884,1.255c-0.812,0.139-2.952,0.501-3.155,0.536c-0.204,0.034-0.536,0.16-0.536,0.572v2.861
		c0,0.295,0.172,0.535,0.517,0.609s2.711,0.467,3.322,0.572c0.611,0.105,1.317,0.369,1.661,1.163
		c0.345,0.794,0.186,0.427,0.535,1.236c0.351,0.811,0.12,1.569-0.424,2.313c-0.544,0.744-1.54,2.179-1.771,2.507
		c-0.232,0.328-0.259,0.628,0,0.886c0.259,0.259,1.852,1.853,2.012,2.013c0.159,0.16,0.504,0.203,0.793,0.019
		c0.289-0.186,2.323-1.67,2.823-2.031c0.502-0.36,1.249-0.554,2.216-0.166c0.965,0.388,0.708,0.288,1.18,0.48
		c0.474,0.192,0.952,0.913,1.071,1.753c0.121,0.841,0.435,2.825,0.554,3.213c0.119,0.388,0.276,0.517,0.627,0.517h2.804
		c0.352,0,0.537-0.156,0.593-0.479c0.053-0.323,0.364-2.154,0.516-3.046c0.15-0.893,0.443-1.687,1.457-2.087
		c1.017-0.399,0.273-0.11,0.961-0.387c0.686-0.277,1.372-0.271,2.105,0.26c1.073,0.776,2.485,1.71,2.785,1.918
		c0.302,0.208,0.534,0.268,0.812,0s1.809-1.81,2.05-2.049c0.238-0.24,0.208-0.518,0.056-0.757c-0.155-0.24-1.867-2.611-2.178-3.047
		c-0.312-0.436-0.333-1.246-0.111-1.828c0.222-0.58,0.285-0.757,0.457-1.165c0.238-0.562,0.886-1.087,1.675-1.213
		c0.787-0.126,3.341-0.587,3.522-0.618c0.18-0.031,0.39-0.243,0.38-0.492c-0.009-0.249,0-2.686,0-2.954
		C34.502,16.273,34.365,16.015,34.022,15.962z M17.999,26.629c-4.773,0-8.644-3.87-8.644-8.645c0-4.773,3.87-8.644,8.644-8.644
		c4.775,0,8.644,3.87,8.644,8.644C26.643,22.759,22.773,26.629,17.999,26.629z"/>
	<path fill="#FFAF00" d="M36,16.597c0-0.937-0.561-1.65-1.361-1.783c-0.803-0.132-3.393-0.558-3.689-0.607
		c-0.299-0.049-0.605-0.346-0.662-0.491s-0.383-0.952-0.51-1.264c-0.125-0.312-0.08-0.711,0.189-1.094
		c0.271-0.384,1.711-2.396,2.076-2.905c0.363-0.509,0.371-1.484-0.207-2.076c-0.58-0.591-2.049-2.021-2.436-2.396
		c-0.385-0.376-1.334-0.371-1.83-0.019s-3.076,2.188-3.076,2.188s-0.428,0.296-0.887,0.113c-0.459-0.182-1.434-0.604-1.434-0.604
		s-0.309-0.233-0.416-0.849s-0.477-2.8-0.604-3.547C21.027,0.517,20.268-0.006,19.531,0s-2.485,0-3.189,0
		c-0.705,0-1.384,0.673-1.491,1.264c-0.107,0.591-0.496,2.967-0.604,3.623s-0.49,0.792-0.49,0.792s-0.84,0.346-1.283,0.528
		c-0.444,0.183-0.661,0.113-1.303-0.321c-0.642-0.434-1.92-1.331-2.705-1.88s-1.635-0.34-2.113,0.151S4.806,5.692,4.164,6.321
		c-0.642,0.629-0.541,1.61,0.025,2.39c0.566,0.78,1.388,1.948,1.773,2.497c0.387,0.548,0.467,0.836,0.359,1.151
		s-0.285,0.711-0.49,1.188c-0.207,0.478-0.416,0.585-1.196,0.73c-0.745,0.138-2.507,0.425-3.321,0.571C0.5,14.992,0,15.767,0,16.642
		v2.773c0,1.044,0.566,1.598,1.648,1.799s2.688,0.457,3.208,0.54c0.52,0.084,0.758,0.283,0.919,0.667
		c0.16,0.384,0.22,0.435,0.402,0.969c0.182,0.534,0.276,0.666-0.215,1.358c-0.49,0.691-1.471,2.063-1.975,2.768
		c-0.503,0.703-0.277,1.622,0.214,2.138s1.522,1.528,2.101,2.101c0.58,0.572,1.51,0.698,2.29,0.151s2.358-1.673,2.818-2
		c0.459-0.327,0.94-0.227,1.194-0.126c0.256,0.101,0.483,0.197,0.944,0.39c0.46,0.192,0.595,0.481,0.704,1.007
		c0.11,0.524,0.438,2.438,0.598,3.371c0.16,0.932,0.812,1.434,1.742,1.446c0.932,0.013,1.428,0.005,2.643,0
		c1.213-0.005,1.795-0.541,1.949-1.346c0.154-0.806,0.533-3.129,0.609-3.592c0.076-0.462,0.256-0.632,0.586-0.792
		s0.615-0.278,1.15-0.51c0.537-0.231,0.813-0.028,1.189,0.245c0.377,0.274,2.039,1.449,2.736,1.943
		c0.699,0.495,1.576,0.443,2.227-0.188s1.357-1.329,2.113-2.075c0.758-0.746,0.523-1.698,0.189-2.207
		c-0.334-0.51-1.908-2.701-2.133-3.013c-0.225-0.313-0.189-0.799-0.076-1.057s0.363-0.783,0.504-1.082s0.412-0.48,0.779-0.554
		c0.369-0.072,2.691-0.472,3.594-0.627s1.336-0.854,1.342-1.712S35.998,17.343,36,16.597z M34.502,19.495
		c0.01,0.249-0.2,0.461-0.38,0.492c-0.182,0.031-2.735,0.492-3.522,0.618c-0.789,0.126-1.437,0.651-1.675,1.213
		c-0.172,0.408-0.235,0.585-0.457,1.165c-0.222,0.582-0.2,1.393,0.111,1.828c0.311,0.436,2.022,2.807,2.178,3.047
		c0.152,0.239,0.183,0.517-0.056,0.757c-0.241,0.239-1.772,1.781-2.05,2.049s-0.51,0.208-0.812,0
		c-0.3-0.208-1.712-1.142-2.785-1.918c-0.733-0.531-1.42-0.537-2.105-0.26c-0.688,0.276,0.056-0.013-0.961,0.387
		c-1.014,0.4-1.307,1.194-1.457,2.087c-0.151,0.892-0.463,2.723-0.516,3.046c-0.056,0.323-0.241,0.479-0.593,0.479h-2.804
		c-0.352,0-0.508-0.129-0.627-0.517c-0.12-0.388-0.434-2.372-0.554-3.213c-0.119-0.84-0.597-1.561-1.071-1.753
		c-0.473-0.192-0.215-0.093-1.18-0.48c-0.967-0.388-1.713-0.194-2.216,0.166c-0.5,0.361-2.534,1.846-2.823,2.031
		c-0.289,0.185-0.634,0.142-0.793-0.019c-0.161-0.16-1.753-1.754-2.012-2.013c-0.259-0.258-0.232-0.558,0-0.886
		c0.232-0.328,1.227-1.763,1.771-2.507c0.544-0.743,0.775-1.502,0.424-2.313c-0.35-0.81-0.19-0.442-0.535-1.236
		c-0.344-0.794-1.049-1.058-1.661-1.163c-0.611-0.105-2.978-0.498-3.322-0.572s-0.517-0.314-0.517-0.609v-2.861
		c0-0.412,0.332-0.538,0.536-0.572c0.203-0.035,2.344-0.397,3.155-0.536c0.813-0.139,1.572-0.49,1.884-1.255
		c0.311-0.766,0.183-0.48,0.479-1.181c0.295-0.702,0.164-1.468-0.333-2.16S5.545,8.501,5.304,8.16
		c-0.24-0.342-0.248-0.545,0.038-0.831s1.817-1.836,2.029-2.031c0.212-0.194,0.521-0.233,0.795-0.037
		c0.271,0.197,2.132,1.542,2.768,1.994c0.637,0.452,1.398,0.543,2.123,0.24c0.724-0.303,0.443-0.194,1.163-0.48
		s1.074-0.825,1.218-1.717c0.144-0.891,0.517-3.206,0.554-3.36c0.037-0.154,0.24-0.452,0.507-0.452c0.268,0,2.845,0.003,3.019,0
		c0.172-0.003,0.445,0.142,0.489,0.397s0.562,3.212,0.646,3.729c0.082,0.517,0.675,1.236,1.104,1.416s0.922,0.378,1.353,0.566
		c0.432,0.188,1.303,0.083,1.564-0.099c0.26-0.18,3.046-2.11,3.26-2.265c0.213-0.154,0.497-0.141,0.763,0.124
		c0.264,0.265,1.874,1.868,2.054,2.055c0.183,0.188,0.202,0.375,0.05,0.591c-0.151,0.216-1.588,2.24-2.054,2.917
		c-0.468,0.677-0.508,1.459-0.235,2.117c0.273,0.658,0.172,0.406,0.394,0.947c0.222,0.542,0.705,1.256,1.452,1.378
		c0.749,0.124,3.325,0.551,3.667,0.603c0.343,0.053,0.479,0.311,0.479,0.579C34.502,16.809,34.493,19.246,34.502,19.495z"/>
	<path fill="#FFAF00" d="M17.999,9.341c-4.773,0-8.644,3.87-8.644,8.644c0,4.774,3.87,8.645,8.644,8.645
		c4.775,0,8.644-3.87,8.644-8.645C26.643,13.211,22.773,9.341,17.999,9.341z M17.999,25.129c-3.946,0-7.144-3.199-7.144-7.145
		s3.198-7.144,7.144-7.144s7.144,3.198,7.144,7.144S21.944,25.129,17.999,25.129z"/>
</g>
</svg>
